<?xml version="1.0" encoding="UTF-8"?>
<svg width="173px" height="28px" viewBox="0 0 173 28" version="1.1" xmlns="http://www.w3.org/2000/svg" xmlns:xlink="http://www.w3.org/1999/xlink">
    <title>Adani Electricity</title>
    <defs>
        <linearGradient x1="0%" y1="35.7304525%" x2="100%" y2="35.7304525%" id="linearGradient-1">
            <stop stop-color="#1C84A6" offset="0%"></stop>
            <stop stop-color="#386BB2" offset="25.2712057%"></stop>
            <stop stop-color="#7356A3" offset="49.4423174%"></stop>
            <stop stop-color="#903B94" offset="71.6984241%"></stop>
            <stop stop-color="#C54961" offset="100%"></stop>
        </linearGradient>
    </defs>
    <g id="Page-1" stroke="none" stroke-width="1" fill="none" fill-rule="evenodd">
        <g id="Adani-Electricity" fill-rule="nonzero">
            <rect id="Rectangle-Copy" fill="#555555" x="76" y="1.13686838e-13" width="1" height="24" rx="0.5"></rect>
            <path d="M93.1018195,23.5681223 C93.3968976,23.5681223 93.6438652,23.469869 93.8427222,23.2733624 C94.0415792,23.0768559 94.1410077,22.8279476 94.1410077,22.5266376 C94.1410077,22.2384279 94.0351645,21.9927948 93.823478,21.789738 C93.6117915,21.5866812 93.3712386,21.4851528 93.1018195,21.4851528 L93.1018195,21.4851528 L87.0783765,21.4851528 L87.0783765,17.5943231 L92.890133,17.5943231 C93.1467226,17.5943231 93.3712386,17.4960699 93.5636809,17.2995633 C93.7561232,17.1030568 93.8523443,16.8737991 93.8523443,16.6117904 C93.8523443,16.3235808 93.7593305,16.0877729 93.573303,15.9043668 C93.3872755,15.7209607 93.1595521,15.6292576 92.890133,15.6292576 L92.890133,15.6292576 L87.0783765,15.6292576 L87.0783765,11.8366812 L93.0440868,11.8366812 C93.3263354,11.8366812 93.573303,11.7351528 93.7849895,11.5320961 C93.996676,11.3290393 94.1025192,11.0768559 94.1025192,10.7755459 C94.1025192,10.4742358 93.9998834,10.2286026 93.7946116,10.0386463 C93.5893399,9.84869 93.3391649,9.7537118 93.0440868,9.7537118 L93.0440868,9.7537118 L86.5972708,9.7537118 C86.071262,9.7537118 85.6735479,9.9076419 85.4041288,10.2155022 C85.1347096,10.5233624 85,10.9 85,11.3454148 L85,11.3454148 L85,21.9567686 C85,22.4021834 85.1347096,22.7820961 85.4041288,23.0965066 C85.6735479,23.410917 86.071262,23.5681223 86.5972708,23.5681223 L86.5972708,23.5681223 L93.1018195,23.5681223 Z M97.4510147,23.6467249 C97.7460928,23.6467249 97.989853,23.5451965 98.1822953,23.3421397 C98.3747376,23.139083 98.4709587,22.8868996 98.4709587,22.5855895 L98.4709587,22.5855895 L98.4709587,10.6183406 C98.4709587,10.3170306 98.3715302,10.0648472 98.1726732,9.8617904 C97.9738162,9.6587336 97.7332634,9.5572052 97.4510147,9.5572052 C97.1559366,9.5572052 96.9121763,9.6587336 96.7197341,9.8617904 C96.5272918,10.0648472 96.4310707,10.3170306 96.4310707,10.6183406 L96.4310707,10.6183406 L96.4310707,22.5855895 C96.4310707,22.8868996 96.5337066,23.139083 96.7389783,23.3421397 C96.9442501,23.5451965 97.1815955,23.6467249 97.4510147,23.6467249 Z M105.321903,23.7646288 C105.604152,23.7646288 105.896023,23.7482533 106.197516,23.7155022 C106.499009,23.6827511 106.787672,23.6368996 107.063506,23.5779476 C107.33934,23.5189956 107.59593,23.4469432 107.833275,23.3617904 C108.07062,23.2766376 108.272685,23.1816594 108.439468,23.0768559 C108.657569,22.9458515 108.798694,22.8050218 108.862841,22.6543668 C108.926989,22.5037118 108.959062,22.3497817 108.959062,22.1925764 C108.959062,22.0484716 108.926989,21.910917 108.862841,21.7799127 C108.798694,21.6489083 108.70568,21.5408297 108.5838,21.4556769 C108.46192,21.370524 108.314381,21.3181223 108.141183,21.2984716 C107.967985,21.278821 107.77875,21.3082969 107.573478,21.3868996 C107.201423,21.5310044 106.82616,21.6456332 106.447691,21.730786 C106.069221,21.8159389 105.706788,21.8585153 105.360392,21.8585153 C104.603452,21.8585153 103.990844,21.6489083 103.522568,21.2296943 C103.054292,20.8104803 102.820154,20.2078603 102.820154,19.4218341 L102.820154,19.4218341 L102.820154,19.1860262 L108.26627,19.1860262 C108.689643,19.1860262 109.000758,19.0681223 109.199615,18.8323144 C109.398472,18.5965066 109.497901,18.2951965 109.497901,17.9283843 L109.497901,17.9283843 L109.497901,17.3781659 C109.497901,16.7231441 109.395265,16.1237991 109.189993,15.580131 C108.984721,15.0364629 108.696058,14.5713974 108.324003,14.1849345 C107.951948,13.7984716 107.502916,13.5004367 106.976907,13.2908297 C106.450898,13.0812227 105.867157,12.9764192 105.225682,12.9764192 C104.622697,12.9764192 104.061407,13.0713974 103.541812,13.2613537 C103.022218,13.45131 102.569979,13.7264192 102.185094,14.0866812 C101.80021,14.4469432 101.492302,14.8825328 101.261372,15.3934498 C101.030441,15.9043668 100.889317,16.4742358 100.837999,17.1030568 C100.825169,17.260262 100.815547,17.440393 100.809132,17.6434498 C100.802717,17.8465066 100.79951,18.0561135 100.79951,18.2722707 C100.79951,18.4884279 100.802717,18.7078603 100.809132,18.9305677 C100.815547,19.1532751 100.825169,19.3563319 100.837999,19.539738 C100.876487,20.1554585 101.007989,20.7220524 101.232505,21.2395197 C101.457021,21.7569869 101.761721,22.2024017 102.146606,22.5757642 C102.531491,22.9491266 102.990145,23.2406114 103.522568,23.4502183 C104.054992,23.6598253 104.65477,23.7646288 105.321903,23.7646288 Z M107.284815,17.5353712 L102.820154,17.5353712 C102.794495,16.7100437 102.98373,16.0517467 103.387859,15.5604803 C103.791987,15.069214 104.404595,14.8235808 105.225682,14.8235808 C105.969792,14.8235808 106.550327,15.0495633 106.967285,15.5015284 C107.384243,15.9534934 107.567063,16.5528384 107.515745,17.2995633 C107.490086,17.4567686 107.413109,17.5353712 107.284815,17.5353712 L107.284815,17.5353712 Z M115.771519,23.7646288 C116.451481,23.7646288 117.048052,23.6598253 117.561232,23.4502183 C118.074411,23.2406114 118.500991,22.9818777 118.840973,22.6740175 C119.180954,22.3661572 119.437544,22.0451965 119.610742,21.7111354 C119.78394,21.3770742 119.870539,21.0855895 119.870539,20.8366812 C119.870539,20.5353712 119.780732,20.2831878 119.60112,20.080131 C119.421507,19.8770742 119.190576,19.7755459 118.908328,19.7755459 C118.497784,19.7755459 118.202706,19.9655022 118.023093,20.3454148 C117.804992,20.8432314 117.497084,21.2034934 117.09937,21.4262009 C116.701656,21.6489083 116.271868,21.760262 115.810007,21.760262 C115.053067,21.760262 114.472533,21.5473799 114.068404,21.1216157 C113.664276,20.6958515 113.430138,20.1489083 113.36599,19.480786 C113.353161,19.3235808 113.343539,19.1401747 113.337124,18.9305677 C113.330709,18.7209607 113.327502,18.5048035 113.327502,18.2820961 C113.327502,18.0593886 113.330709,17.8465066 113.337124,17.6434498 C113.343539,17.440393 113.353161,17.2733624 113.36599,17.1423581 C113.430138,16.4742358 113.67069,15.9469432 114.087649,15.5604803 C114.504607,15.1740175 115.078726,14.980786 115.810007,14.980786 C116.271868,14.980786 116.698449,15.0921397 117.089748,15.3148472 C117.481047,15.5375546 117.785748,15.8978166 118.003849,16.3956332 C118.183462,16.7755459 118.472125,16.9655022 118.869839,16.9655022 C119.164917,16.9655022 119.399055,16.8639738 119.572253,16.660917 C119.745451,16.4578603 119.83205,16.2056769 119.83205,15.9043668 C119.83205,15.6554585 119.748659,15.3639738 119.581875,15.0299127 C119.415092,14.6958515 119.16171,14.3781659 118.821728,14.0768559 C118.481747,13.7755459 118.058374,13.5168122 117.55161,13.300655 C117.044845,13.0844978 116.451481,12.9764192 115.771519,12.9764192 C115.155703,12.9764192 114.584791,13.0713974 114.058782,13.2613537 C113.532774,13.45131 113.074119,13.719869 112.68282,14.0670306 C112.291521,14.4141921 111.977199,14.830131 111.739853,15.3148472 C111.502508,15.7995633 111.364591,16.3366812 111.326102,16.9262009 C111.313273,17.1227074 111.303651,17.3421397 111.297236,17.5844978 C111.290821,17.8268559 111.287614,18.0724891 111.287614,18.3213974 C111.287614,18.5703057 111.290821,18.8159389 111.297236,19.0582969 C111.303651,19.300655 111.313273,19.5200873 111.326102,19.7165939 C111.364591,20.2799127 111.502508,20.8072052 111.739853,21.2984716 C111.977199,21.789738 112.288314,22.2187773 112.673198,22.5855895 C113.058083,22.9524017 113.513529,23.2406114 114.039538,23.4502183 C114.565547,23.6598253 115.142874,23.7646288 115.771519,23.7646288 Z M125.027992,23.7646288 C125.400047,23.7646288 125.778516,23.7351528 126.163401,23.6762009 C126.548286,23.6172489 126.888267,23.5222707 127.183345,23.3912664 C127.439935,23.2864629 127.619547,23.1489083 127.722183,22.9786026 C127.824819,22.8082969 127.876137,22.6248908 127.876137,22.4283843 C127.876137,22.2842795 127.847271,22.1434498 127.789538,22.0058952 C127.731805,21.8683406 127.651621,21.7569869 127.548985,21.6718341 C127.446349,21.5866812 127.314847,21.5244541 127.154479,21.4851528 C126.99411,21.4458515 126.817705,21.4524017 126.625262,21.5048035 C126.407161,21.5703057 126.185853,21.6358079 125.961337,21.70131 C125.736821,21.7668122 125.496268,21.7995633 125.239678,21.7995633 C124.764987,21.7995633 124.418591,21.6652838 124.20049,21.3967249 C123.982389,21.1281659 123.873338,20.7449782 123.873338,20.2471616 L123.873338,20.2471616 L123.873338,15.3541485 L126.529041,15.3541485 C126.785631,15.3541485 127.010147,15.2657205 127.202589,15.0888646 C127.395031,14.9120087 127.491253,14.6925764 127.491253,14.4305677 C127.491253,14.168559 127.395031,13.9491266 127.202589,13.7722707 C127.010147,13.5954148 126.785631,13.5069869 126.529041,13.5069869 L126.529041,13.5069869 L123.873338,13.5069869 L123.873338,12.0135371 C123.873338,11.7122271 123.773909,11.4600437 123.575052,11.2569869 C123.376195,11.0539301 123.135643,10.9524017 122.853394,10.9524017 C122.558316,10.9524017 122.314556,11.0539301 122.122113,11.2569869 C121.929671,11.4600437 121.83345,11.7122271 121.83345,12.0135371 L121.83345,12.0135371 L121.83345,20.2275109 C121.83345,20.7253275 121.897597,21.190393 122.025892,21.6227074 C122.154187,22.0550218 122.349837,22.4283843 122.612841,22.7427948 C122.875846,23.0572052 123.206205,23.3061135 123.603919,23.4895197 C124.001633,23.6729258 124.476324,23.7646288 125.027992,23.7646288 Z M130.647306,23.6467249 C130.942384,23.6467249 131.189352,23.5484716 131.388209,23.3519651 C131.587066,23.1554585 131.686494,22.9065502 131.686494,22.6052402 L131.686494,22.6052402 L131.686494,16.5528384 C131.686494,16.0026201 131.795545,15.6063319 132.013646,15.3639738 C132.231747,15.1216157 132.565314,14.9938865 133.014346,14.980786 C133.335083,14.9676856 133.610917,14.9938865 133.841847,15.0593886 C134.072778,15.1248908 134.27805,15.1576419 134.457663,15.1576419 C134.791229,15.1576419 135.03499,15.0495633 135.188943,14.8334061 C135.342897,14.6172489 135.419874,14.3978166 135.419874,14.1751092 C135.419874,13.9393013 135.362141,13.7395197 135.246676,13.5757642 C135.131211,13.4120087 134.925939,13.2842795 134.630861,13.1925764 C134.425589,13.1270742 134.165792,13.0746725 133.85147,13.0353712 C133.537147,12.9960699 133.213203,12.9764192 132.879636,12.9764192 C131.827618,12.9764192 131.025776,13.2679039 130.474108,13.8508734 C129.92244,14.4338428 129.646606,15.2231441 129.646606,16.2187773 L129.646606,16.2187773 L129.646606,22.6052402 C129.646606,22.9065502 129.746035,23.1554585 129.944892,23.3519651 C130.143749,23.5484716 130.377887,23.6467249 130.647306,23.6467249 Z M137.883135,11.7580786 C138.203872,11.7580786 138.473291,11.6401747 138.691393,11.4043668 C138.909494,11.168559 139.018544,10.8868996 139.018544,10.5593886 C139.018544,10.2318777 138.909494,9.9567686 138.691393,9.7340611 C138.473291,9.5113537 138.203872,9.4 137.883135,9.4 C137.549568,9.4 137.273735,9.5113537 137.055633,9.7340611 C136.837532,9.9567686 136.728481,10.2318777 136.728481,10.5593886 C136.728481,10.8868996 136.837532,11.168559 137.055633,11.4043668 C137.273735,11.6401747 137.549568,11.7580786 137.883135,11.7580786 Z M137.883135,23.6467249 C138.178213,23.6467249 138.421973,23.5451965 138.614416,23.3421397 C138.806858,23.139083 138.903079,22.8868996 138.903079,22.5855895 L138.903079,22.5855895 L138.903079,14.1751092 C138.903079,13.8737991 138.803651,13.6216157 138.604794,13.418559 C138.405937,13.2155022 138.165384,13.1139738 137.883135,13.1139738 C137.588057,13.1139738 137.344297,13.2155022 137.151854,13.418559 C136.959412,13.6216157 136.863191,13.8737991 136.863191,14.1751092 L136.863191,14.1751092 L136.863191,22.5855895 C136.863191,22.8868996 136.965827,23.139083 137.171099,23.3421397 C137.37637,23.5451965 137.613716,23.6467249 137.883135,23.6467249 Z M145.792512,23.7646288 C146.472475,23.7646288 147.069046,23.6598253 147.582225,23.4502183 C148.095405,23.2406114 148.521985,22.9818777 148.861966,22.6740175 C149.201948,22.3661572 149.458537,22.0451965 149.631735,21.7111354 C149.804934,21.3770742 149.891533,21.0855895 149.891533,20.8366812 C149.891533,20.5353712 149.801726,20.2831878 149.622113,20.080131 C149.442501,19.8770742 149.21157,19.7755459 148.929321,19.7755459 C148.518778,19.7755459 148.2237,19.9655022 148.044087,20.3454148 C147.825986,20.8432314 147.518078,21.2034934 147.120364,21.4262009 C146.72265,21.6489083 146.292862,21.760262 145.831001,21.760262 C145.074061,21.760262 144.493527,21.5473799 144.089398,21.1216157 C143.685269,20.6958515 143.451131,20.1489083 143.386984,19.480786 C143.374154,19.3235808 143.364532,19.1401747 143.358118,18.9305677 C143.351703,18.7209607 143.348495,18.5048035 143.348495,18.2820961 C143.348495,18.0593886 143.351703,17.8465066 143.358118,17.6434498 C143.364532,17.440393 143.374154,17.2733624 143.386984,17.1423581 C143.451131,16.4742358 143.691684,15.9469432 144.108642,15.5604803 C144.525601,15.1740175 145.09972,14.980786 145.831001,14.980786 C146.292862,14.980786 146.719443,15.0921397 147.110742,15.3148472 C147.502041,15.5375546 147.806741,15.8978166 148.024843,16.3956332 C148.204455,16.7755459 148.493119,16.9655022 148.890833,16.9655022 C149.185911,16.9655022 149.420049,16.8639738 149.593247,16.660917 C149.766445,16.4578603 149.853044,16.2056769 149.853044,15.9043668 C149.853044,15.6554585 149.769652,15.3639738 149.602869,15.0299127 C149.436086,14.6958515 149.182704,14.3781659 148.842722,14.0768559 C148.502741,13.7755459 148.079368,13.5168122 147.572603,13.300655 C147.065839,13.0844978 146.472475,12.9764192 145.792512,12.9764192 C145.176697,12.9764192 144.605785,13.0713974 144.079776,13.2613537 C143.553767,13.45131 143.095113,13.719869 142.703814,14.0670306 C142.312515,14.4141921 141.998192,14.830131 141.760847,15.3148472 C141.523501,15.7995633 141.385584,16.3366812 141.347096,16.9262009 C141.334266,17.1227074 141.324644,17.3421397 141.31823,17.5844978 C141.311815,17.8268559 141.308607,18.0724891 141.308607,18.3213974 C141.308607,18.5703057 141.311815,18.8159389 141.31823,19.0582969 C141.324644,19.300655 141.334266,19.5200873 141.347096,19.7165939 C141.385584,20.2799127 141.523501,20.8072052 141.760847,21.2984716 C141.998192,21.789738 142.309307,22.2187773 142.694192,22.5855895 C143.079076,22.9524017 143.534523,23.2406114 144.060532,23.4502183 C144.586541,23.6598253 145.163868,23.7646288 145.792512,23.7646288 Z M153.06683,11.7580786 C153.387567,11.7580786 153.656986,11.6401747 153.875087,11.4043668 C154.093189,11.168559 154.202239,10.8868996 154.202239,10.5593886 C154.202239,10.2318777 154.093189,9.9567686 153.875087,9.7340611 C153.656986,9.5113537 153.387567,9.4 153.06683,9.4 C152.733263,9.4 152.457429,9.5113537 152.239328,9.7340611 C152.021227,9.9567686 151.912176,10.2318777 151.912176,10.5593886 C151.912176,10.8868996 152.021227,11.168559 152.239328,11.4043668 C152.457429,11.6401747 152.733263,11.7580786 153.06683,11.7580786 Z M153.06683,23.6467249 C153.361908,23.6467249 153.605668,23.5451965 153.798111,23.3421397 C153.990553,23.139083 154.086774,22.8868996 154.086774,22.5855895 L154.086774,22.5855895 L154.086774,14.1751092 C154.086774,13.8737991 153.987345,13.6216157 153.788488,13.418559 C153.589631,13.2155022 153.349079,13.1139738 153.06683,13.1139738 C152.771752,13.1139738 152.527992,13.2155022 152.335549,13.418559 C152.143107,13.6216157 152.046886,13.8737991 152.046886,14.1751092 L152.046886,14.1751092 L152.046886,22.5855895 C152.046886,22.8868996 152.149522,23.139083 152.354794,23.3421397 C152.560065,23.5451965 152.797411,23.6467249 153.06683,23.6467249 Z M159.956263,23.7646288 C160.328318,23.7646288 160.706788,23.7351528 161.091672,23.6762009 C161.476557,23.6172489 161.816538,23.5222707 162.111617,23.3912664 C162.368206,23.2864629 162.547819,23.1489083 162.650455,22.9786026 C162.753091,22.8082969 162.804409,22.6248908 162.804409,22.4283843 C162.804409,22.2842795 162.775542,22.1434498 162.71781,22.0058952 C162.660077,21.8683406 162.579893,21.7569869 162.477257,21.6718341 C162.374621,21.5866812 162.243119,21.5244541 162.08275,21.4851528 C161.922382,21.4458515 161.745976,21.4524017 161.553534,21.5048035 C161.335433,21.5703057 161.114124,21.6358079 160.889608,21.70131 C160.665092,21.7668122 160.424539,21.7995633 160.16795,21.7995633 C159.693259,21.7995633 159.346863,21.6652838 159.128761,21.3967249 C158.91066,21.1281659 158.80161,20.7449782 158.80161,20.2471616 L158.80161,20.2471616 L158.80161,15.3541485 L161.457313,15.3541485 C161.713902,15.3541485 161.938418,15.2657205 162.130861,15.0888646 C162.323303,14.9120087 162.419524,14.6925764 162.419524,14.4305677 C162.419524,14.168559 162.323303,13.9491266 162.130861,13.7722707 C161.938418,13.5954148 161.713902,13.5069869 161.457313,13.5069869 L161.457313,13.5069869 L158.80161,13.5069869 L158.80161,12.0135371 C158.80161,11.7122271 158.702181,11.4600437 158.503324,11.2569869 C158.304467,11.0539301 158.063914,10.9524017 157.781666,10.9524017 C157.486587,10.9524017 157.242827,11.0539301 157.050385,11.2569869 C156.857943,11.4600437 156.761721,11.7122271 156.761721,12.0135371 L156.761721,12.0135371 L156.761721,20.2275109 C156.761721,20.7253275 156.825869,21.190393 156.954164,21.6227074 C157.082459,22.0550218 157.278108,22.4283843 157.541113,22.7427948 C157.804117,23.0572052 158.134476,23.3061135 158.53219,23.4895197 C158.929904,23.6729258 159.404595,23.7646288 159.956263,23.7646288 Z M165.806508,27.4 C166.088757,27.4 166.37742,27.3017467 166.672498,27.1052402 C167.070212,26.8432314 167.509622,26.3978166 167.990728,25.7689956 C168.471833,25.1401747 168.904829,24.3541485 169.289713,23.410917 L169.289713,23.410917 L172.907628,14.6270742 C172.984605,14.4436681 173.013471,14.260262 172.994227,14.0768559 C172.974983,13.8934498 172.91725,13.7296943 172.821029,13.5855895 C172.724808,13.4414847 172.602927,13.3268559 172.455388,13.2417031 C172.307849,13.1565502 172.137859,13.1139738 171.945416,13.1139738 C171.688827,13.1139738 171.473933,13.1893013 171.300735,13.3399563 C171.127537,13.4906114 170.996035,13.690393 170.906228,13.9393013 L170.906228,13.9393013 L168.519944,20.2471616 C168.494285,20.2864629 168.462211,20.3061135 168.423723,20.3061135 C168.385234,20.3061135 168.359575,20.2864629 168.346746,20.2471616 L168.346746,20.2471616 L165.748775,13.9 C165.671798,13.6772926 165.546711,13.4906114 165.373513,13.3399563 C165.200315,13.1893013 164.979006,13.1139738 164.709587,13.1139738 C164.542804,13.1139738 164.385643,13.1565502 164.238104,13.2417031 C164.090564,13.3268559 163.968684,13.4382096 163.872463,13.5757642 C163.776242,13.7133188 163.718509,13.8737991 163.699265,14.0572052 C163.680021,14.2406114 163.708887,14.4305677 163.785864,14.6270742 L163.785864,14.6270742 L167.288314,22.8606987 C167.031724,23.5681223 166.717401,24.1412664 166.345346,24.580131 C165.973291,25.0189956 165.614066,25.3497817 165.26767,25.5724891 C165.126545,25.6772926 165.020702,25.8082969 164.95014,25.9655022 C164.879578,26.1227074 164.844297,26.2733624 164.844297,26.4174672 C164.844297,26.7187773 164.940518,26.9578603 165.13296,27.1347162 C165.325402,27.3115721 165.549918,27.4 165.806508,27.4 Z" id="Electricity" fill="#555555"></path>
            <path d="M6.6698565,24 C7.5157895,24 8.3020734,23.9343365 9.0287081,23.8030096 C9.7553429,23.6716826 10.4060606,23.5075239 10.9808612,23.3105335 C11.5556619,23.1135431 12.0491228,22.9110807 12.461244,22.7031464 C12.8733652,22.495212 13.1987241,22.3146375 13.4373206,22.1614227 C13.6759171,21.9863201 13.8385965,21.8057456 13.9253589,21.619699 C14.0121212,21.4336525 14.0555024,21.1874145 14.0555024,20.880985 L14.0555024,20.880985 L14.0555024,12.3447332 C14.0555024,10.1340629 13.4535885,8.5198358 12.2497608,7.502052 C11.045933,6.4842681 9.4028708,5.9753762 7.3205742,5.9753762 C6.322807,5.9753762 5.3629984,6.0793434 4.4411483,6.2872777 C3.5192982,6.495212 2.8197767,6.7195622 2.3425837,6.9603283 C1.90877193,7.1573187 1.61052632,7.4035568 1.44784689,7.6990424 C1.28516746,7.994528 1.20382775,8.2845417 1.20382775,8.5690834 C1.20382775,9.0725034 1.42073365,9.4774282 1.85454545,9.7838577 C2.2883573,10.0902873 2.8631579,10.123119 3.5789474,9.8823529 C4.0344498,9.7072503 4.5712919,9.5430917 5.1894737,9.3898769 C5.8076555,9.2366621 6.4529506,9.1600547 7.1253589,9.1600547 C8.4051037,9.1600547 9.3269537,9.4117647 9.8909091,9.9151847 C10.4548644,10.4186047 10.7368421,11.2284542 10.7368421,12.3447332 L10.7368421,12.3447332 L10.7368421,13.4281806 C9.9776715,13.253078 9.2889952,13.1162791 8.6708134,13.0177839 C8.0526316,12.9192886 7.3639553,12.870041 6.6047847,12.870041 C5.4551834,12.870041 4.4682616,13.0177839 3.6440191,13.3132695 C2.8197767,13.6087551 2.1365231,14.0082079 1.59425837,14.5116279 C1.05199362,15.0150479 0.6507177,15.5950752 0.39043062,16.25171 C0.13014354,16.9083447 0,17.5978112 0,18.3201094 C0,19.129959 0.14098884,19.879617 0.42296651,20.5690834 C0.70494418,21.2585499 1.12248804,21.8604651 1.67559809,22.374829 C2.2287081,22.8891929 2.922807,23.2886457 3.7578947,23.5731874 C4.5929825,23.8577291 5.5636364,24 6.6698565,24 Z M6.9626794,20.9466484 C5.7913876,20.9466484 4.9020734,20.7113543 4.2947368,20.2407661 C3.6874003,19.7701778 3.3837321,19.0861833 3.3837321,18.1887825 C3.3837321,17.4008208 3.7036683,16.7934337 4.3435407,16.3666211 C4.9834131,15.9398085 5.8022329,15.7264022 6.8,15.7264022 C7.5374801,15.7264022 8.1990431,15.7756498 8.784689,15.874145 C9.3703349,15.9726402 10.0210526,16.1094391 10.7368421,16.2845417 L10.7368421,16.2845417 L10.7368421,19.9288646 C10.5633174,20.0601915 10.1728868,20.2626539 9.5655502,20.5362517 C8.9582137,20.8098495 8.0905901,20.9466484 6.9626794,20.9466484 Z M22.937799,24 C23.7186603,24 24.4669856,23.9233926 25.1827751,23.7701778 C25.8985646,23.6169631 26.5438596,23.4309166 27.1186603,23.2120383 C27.6934609,22.9931601 28.1923445,22.7688098 28.615311,22.5389877 C29.0382775,22.3091655 29.3582137,22.1176471 29.5751196,21.9644323 C29.8354067,21.7893297 30.0035088,21.6032832 30.0794258,21.4062927 C30.1553429,21.2093023 30.1933014,20.9575923 30.1933014,20.6511628 L30.1933014,20.6511628 L30.1933014,2.002736 C30.1933014,1.49931601 30.030622,1.07797538 29.7052632,0.73871409 C29.3799043,0.3994528 28.9677831,0.22982216 28.4688995,0.22982216 C27.9917065,0.22982216 27.585008,0.3994528 27.2488038,0.73871409 C26.9125997,1.07797538 26.7444976,1.49931601 26.7444976,2.002736 L26.7444976,2.002736 L26.7444976,6.9274966 C26.2022329,6.6867305 25.5515152,6.4678523 24.7923445,6.2708618 C24.0331738,6.0738714 23.2631579,5.9753762 22.4822967,5.9753762 C20.3783094,5.9753762 18.7352472,6.5608755 17.55311,7.7318741 C16.3709729,8.9028728 15.6931419,10.5170999 15.5196172,12.5745554 C15.4979266,12.880985 15.4816587,13.2366621 15.4708134,13.6415869 C15.4599681,14.0465116 15.4545455,14.4678523 15.4545455,14.9056088 C15.4545455,15.3433653 15.4599681,15.7701778 15.4708134,16.1860465 C15.4816587,16.6019152 15.4979266,16.9521204 15.5196172,17.2366621 C15.6063796,18.2435021 15.8341308,19.1627907 16.2028708,19.994528 C16.5716108,20.8262654 17.0759171,21.5376197 17.7157895,22.128591 C18.3556619,22.7195622 19.1094099,23.1792066 19.9770335,23.5075239 C20.8446571,23.8358413 21.8315789,24 22.937799,24 Z M23.0028708,20.6511628 C20.508453,20.6511628 19.1636364,19.370725 18.9684211,16.8098495 C18.9467305,16.5471956 18.9304625,16.246238 18.9196172,15.9069767 C18.9087719,15.5677155 18.9033493,15.2175103 18.9033493,14.8563611 C18.9033493,14.495212 18.9087719,14.1450068 18.9196172,13.8057456 C18.9304625,13.4664843 18.9467305,13.1874145 18.9684211,12.9685363 C19.0334928,11.7647059 19.369697,10.8563611 19.9770335,10.2435021 C20.58437,9.630643 21.5062201,9.3242134 22.7425837,9.3242134 C23.5885167,9.3242134 24.3802233,9.4391245 25.1177033,9.6689466 C25.8551834,9.8987688 26.3974482,10.123119 26.7444976,10.3419973 L26.7444976,10.3419973 L26.7444976,19.4692202 C26.5709729,19.6005472 26.3486443,19.7318741 26.077512,19.8632011 C25.8063796,19.994528 25.4972887,20.120383 25.1502392,20.2407661 C24.8031898,20.3611491 24.4452951,20.4596443 24.076555,20.5362517 C23.707815,20.6128591 23.3499203,20.6511628 23.0028708,20.6511628 Z M38.2947368,24 C39.1406699,24 39.9269537,23.9343365 40.6535885,23.8030096 C41.3802233,23.6716826 42.030941,23.5075239 42.6057416,23.3105335 C43.1805423,23.1135431 43.6740032,22.9110807 44.0861244,22.7031464 C44.4982456,22.495212 44.8236045,22.3146375 45.062201,22.1614227 C45.3007974,21.9863201 45.4634769,21.8057456 45.5502392,21.619699 C45.6370016,21.4336525 45.6803828,21.1874145 45.6803828,20.880985 L45.6803828,20.880985 L45.6803828,12.3447332 C45.6803828,10.1340629 45.0784689,8.5198358 43.8746411,7.502052 C42.6708134,6.4842681 41.0277512,5.9753762 38.9454545,5.9753762 C37.9476874,5.9753762 36.9878788,6.0793434 36.0660287,6.2872777 C35.1441786,6.495212 34.4446571,6.7195622 33.9674641,6.9603283 C33.5336523,7.1573187 33.2354067,7.4035568 33.0727273,7.6990424 C32.9100478,7.994528 32.8287081,8.2845417 32.8287081,8.5690834 C32.8287081,9.0725034 33.045614,9.4774282 33.4794258,9.7838577 C33.9132376,10.0902873 34.4880383,10.123119 35.2038278,9.8823529 C35.6593301,9.7072503 36.1961722,9.5430917 36.8143541,9.3898769 C37.4325359,9.2366621 38.0778309,9.1600547 38.7502392,9.1600547 C40.0299841,9.1600547 40.9518341,9.4117647 41.5157895,9.9151847 C42.0797448,10.4186047 42.3617225,11.2284542 42.3617225,12.3447332 L42.3617225,12.3447332 L42.3617225,13.4281806 C41.6025518,13.253078 40.9138756,13.1162791 40.2956938,13.0177839 C39.677512,12.9192886 38.9888357,12.870041 38.2296651,12.870041 C37.0800638,12.870041 36.0931419,13.0177839 35.2688995,13.3132695 C34.4446571,13.6087551 33.7614035,14.0082079 33.2191388,14.5116279 C32.676874,15.0150479 32.2755981,15.5950752 32.015311,16.25171 C31.7550239,16.9083447 31.6248804,17.5978112 31.6248804,18.3201094 C31.6248804,19.129959 31.7658692,19.879617 32.0478469,20.5690834 C32.3298246,21.2585499 32.7473684,21.8604651 33.3004785,22.374829 C33.8535885,22.8891929 34.5476874,23.2886457 35.3827751,23.5731874 C36.2178628,23.8577291 37.1885167,24 38.2947368,24 Z M38.5875598,20.9466484 C37.4162679,20.9466484 36.5269537,20.7113543 35.9196172,20.2407661 C35.3122807,19.7701778 35.0086124,19.0861833 35.0086124,18.1887825 C35.0086124,17.4008208 35.3285486,16.7934337 35.9684211,16.3666211 C36.6082935,15.9398085 37.4271132,15.7264022 38.4248804,15.7264022 C39.1623604,15.7264022 39.8239234,15.7756498 40.4095694,15.874145 C40.9952153,15.9726402 41.645933,16.1094391 42.3617225,16.2845417 L42.3617225,16.2845417 L42.3617225,19.9288646 C42.1881978,20.0601915 41.7977671,20.2626539 41.1904306,20.5362517 C40.5830941,20.8098495 39.7154705,20.9466484 38.5875598,20.9466484 Z M60.4516746,23.8030096 C60.9505582,23.8030096 61.3626794,23.6333789 61.6880383,23.2941176 C62.0133971,22.9548564 62.1760766,22.5335157 62.1760766,22.0300958 L62.1760766,22.0300958 L62.1760766,12.9028728 C62.1760766,10.6703146 61.5795853,8.9575923 60.3866029,7.7647059 C59.1936204,6.5718194 57.414992,5.9753762 55.0507177,5.9753762 C54.2047847,5.9753762 53.4185008,6.0355677 52.691866,6.1559508 C51.9652313,6.2763338 51.3199362,6.4295486 50.7559809,6.6155951 C50.1920255,6.8016416 49.7039872,6.998632 49.291866,7.2065663 C48.8797448,7.4145007 48.554386,7.6060192 48.3157895,7.7811218 C48.077193,7.9562244 47.9036683,8.1367989 47.7952153,8.3228454 C47.6867624,8.5088919 47.6325359,8.7770178 47.6325359,9.127223 L47.6325359,9.127223 L47.6325359,22.0300958 C47.6325359,22.5335157 47.8060606,22.9548564 48.15311,23.2941176 C48.5001595,23.6333789 48.9014354,23.8030096 49.3569378,23.8030096 C49.8558214,23.8030096 50.2679426,23.6333789 50.5933014,23.2941176 C50.9186603,22.9548564 51.0813397,22.5335157 51.0813397,22.0300958 L51.0813397,22.0300958 L51.0813397,10.2435021 C51.4500797,10.002736 51.9869219,9.7893297 52.691866,9.6032832 C53.3968102,9.4172367 54.1505582,9.3242134 54.95311,9.3242134 C55.4519936,9.3242134 55.9291866,9.3953488 56.384689,9.5376197 C56.8401914,9.6798906 57.2414673,9.9042408 57.5885167,10.2106703 C57.9355662,10.5170999 58.2121212,10.9056088 58.4181818,11.376197 C58.6242424,11.8467852 58.7272727,12.4103967 58.7272727,13.0670315 L58.7272727,13.0670315 L58.7272727,22.0300958 C58.7272727,22.5335157 58.9007974,22.9548564 59.2478469,23.2941176 C59.5948963,23.6333789 59.9961722,23.8030096 60.4516746,23.8030096 Z M66.0803828,3.9398085 C66.6226475,3.9398085 67.0781499,3.7428181 67.44689,3.3488372 C67.81563,2.9548564 68,2.4842681 68,1.9370725 C68,1.38987688 67.81563,0.93023256 67.44689,0.55813953 C67.0781499,0.18604651 66.6226475,0 66.0803828,0 C65.5164274,0 65.0500797,0.18604651 64.6813397,0.55813953 C64.3125997,0.93023256 64.1282297,1.38987688 64.1282297,1.9370725 C64.1282297,2.4842681 64.3125997,2.9548564 64.6813397,3.3488372 C65.0500797,3.7428181 65.5164274,3.9398085 66.0803828,3.9398085 Z M66.0803828,23.8030096 C66.5792663,23.8030096 66.9913876,23.6333789 67.3167464,23.2941176 C67.6421053,22.9548564 67.8047847,22.5335157 67.8047847,22.0300958 L67.8047847,22.0300958 L67.8047847,7.9781122 C67.8047847,7.4746922 67.6366826,7.0533516 67.3004785,6.7140903 C66.9642743,6.374829 66.5575758,6.2051984 66.0803828,6.2051984 C65.5814992,6.2051984 65.169378,6.374829 64.8440191,6.7140903 C64.5186603,7.0533516 64.3559809,7.4746922 64.3559809,7.9781122 L64.3559809,7.9781122 L64.3559809,22.0300958 C64.3559809,22.5335157 64.5295056,22.9548564 64.876555,23.2941176 C65.2236045,23.6333789 65.6248804,23.8030096 66.0803828,23.8030096 Z" id="adani" fill="url(#linearGradient-1)"></path>
        </g>
    </g>
</svg>